<mxfile host="app.diagrams.net" modified="2024-06-18T06:14:29.703Z" agent="Mozilla/5.0 (Macintosh; Intel Mac OS X 10_15_7) AppleWebKit/605.1.15 (KHTML, like Gecko) Version/17.2 Safari/605.1.15" etag="v0HVa6oPKkSV_g0gmyXi" version="24.5.5" type="github">
  <diagram name="Page-1" id="2YBvvXClWsGukQMizWep">
    <mxGraphModel dx="2272" dy="1921" grid="1" gridSize="10" guides="1" tooltips="1" connect="1" arrows="1" fold="1" page="1" pageScale="1" pageWidth="850" pageHeight="1100" math="0" shadow="0">
      <root>
        <mxCell id="0" />
        <mxCell id="1" parent="0" />
        <mxCell id="aM9ryv3xv72pqoxQDRHE-1" value="Client" style="shape=umlLifeline;perimeter=lifelinePerimeter;whiteSpace=wrap;html=1;container=0;dropTarget=0;collapsible=0;recursiveResize=0;outlineConnect=0;portConstraint=eastwest;newEdgeStyle={&quot;edgeStyle&quot;:&quot;elbowEdgeStyle&quot;,&quot;elbow&quot;:&quot;vertical&quot;,&quot;curved&quot;:0,&quot;rounded&quot;:0};" parent="1" vertex="1">
          <mxGeometry x="55" y="-50" width="100" height="470" as="geometry" />
        </mxCell>
        <mxCell id="P_Tx9aTctBvUFHbMiPaI-23" value="" style="html=1;points=[];perimeter=orthogonalPerimeter;outlineConnect=0;targetShapes=umlLifeline;portConstraint=eastwest;newEdgeStyle={&quot;edgeStyle&quot;:&quot;elbowEdgeStyle&quot;,&quot;elbow&quot;:&quot;vertical&quot;,&quot;curved&quot;:0,&quot;rounded&quot;:0};" vertex="1" parent="aM9ryv3xv72pqoxQDRHE-1">
          <mxGeometry x="45" y="70" width="10" height="340" as="geometry" />
        </mxCell>
        <mxCell id="aM9ryv3xv72pqoxQDRHE-5" value="FCM" style="shape=umlLifeline;perimeter=lifelinePerimeter;whiteSpace=wrap;html=1;container=0;dropTarget=0;collapsible=0;recursiveResize=0;outlineConnect=0;portConstraint=eastwest;newEdgeStyle={&quot;edgeStyle&quot;:&quot;elbowEdgeStyle&quot;,&quot;elbow&quot;:&quot;vertical&quot;,&quot;curved&quot;:0,&quot;rounded&quot;:0};" parent="1" vertex="1">
          <mxGeometry x="680" y="-50" width="100" height="470" as="geometry" />
        </mxCell>
        <mxCell id="P_Tx9aTctBvUFHbMiPaI-3" value="" style="html=1;points=[];perimeter=orthogonalPerimeter;outlineConnect=0;targetShapes=umlLifeline;portConstraint=eastwest;newEdgeStyle={&quot;edgeStyle&quot;:&quot;elbowEdgeStyle&quot;,&quot;elbow&quot;:&quot;vertical&quot;,&quot;curved&quot;:0,&quot;rounded&quot;:0};" vertex="1" parent="aM9ryv3xv72pqoxQDRHE-5">
          <mxGeometry x="45" y="230.5" width="10" height="19" as="geometry" />
        </mxCell>
        <mxCell id="P_Tx9aTctBvUFHbMiPaI-1" value="Socket io server" style="shape=umlLifeline;perimeter=lifelinePerimeter;whiteSpace=wrap;html=1;container=0;dropTarget=0;collapsible=0;recursiveResize=0;outlineConnect=0;portConstraint=eastwest;newEdgeStyle={&quot;edgeStyle&quot;:&quot;elbowEdgeStyle&quot;,&quot;elbow&quot;:&quot;vertical&quot;,&quot;curved&quot;:0,&quot;rounded&quot;:0};" vertex="1" parent="1">
          <mxGeometry x="277" y="-50" width="100" height="470" as="geometry" />
        </mxCell>
        <mxCell id="P_Tx9aTctBvUFHbMiPaI-25" value="" style="html=1;points=[];perimeter=orthogonalPerimeter;outlineConnect=0;targetShapes=umlLifeline;portConstraint=eastwest;newEdgeStyle={&quot;edgeStyle&quot;:&quot;elbowEdgeStyle&quot;,&quot;elbow&quot;:&quot;vertical&quot;,&quot;curved&quot;:0,&quot;rounded&quot;:0};" vertex="1" parent="P_Tx9aTctBvUFHbMiPaI-1">
          <mxGeometry x="45" y="242" width="10" height="100" as="geometry" />
        </mxCell>
        <mxCell id="P_Tx9aTctBvUFHbMiPaI-4" value="" style="html=1;verticalAlign=bottom;endArrow=open;dashed=1;endSize=8;edgeStyle=elbowEdgeStyle;elbow=vertical;curved=0;rounded=0;" edge="1" parent="1" source="aM9ryv3xv72pqoxQDRHE-5">
          <mxGeometry relative="1" as="geometry">
            <mxPoint x="110" y="200" as="targetPoint" />
            <Array as="points" />
            <mxPoint x="730" y="200" as="sourcePoint" />
          </mxGeometry>
        </mxCell>
        <mxCell id="P_Tx9aTctBvUFHbMiPaI-10" value="Background 상태" style="html=1;verticalAlign=bottom;startArrow=oval;endArrow=block;startSize=8;edgeStyle=elbowEdgeStyle;elbow=vertical;curved=0;rounded=0;" edge="1" parent="1">
          <mxGeometry x="-0.0036" relative="1" as="geometry">
            <mxPoint x="-20.5" y="137" as="sourcePoint" />
            <mxPoint x="99.5" y="137.43" as="targetPoint" />
            <mxPoint as="offset" />
          </mxGeometry>
        </mxCell>
        <mxCell id="P_Tx9aTctBvUFHbMiPaI-14" value="Server" style="shape=umlLifeline;perimeter=lifelinePerimeter;whiteSpace=wrap;html=1;container=0;dropTarget=0;collapsible=0;recursiveResize=0;outlineConnect=0;portConstraint=eastwest;newEdgeStyle={&quot;edgeStyle&quot;:&quot;elbowEdgeStyle&quot;,&quot;elbow&quot;:&quot;vertical&quot;,&quot;curved&quot;:0,&quot;rounded&quot;:0};" vertex="1" parent="1">
          <mxGeometry x="472" y="-50" width="100" height="470" as="geometry" />
        </mxCell>
        <mxCell id="P_Tx9aTctBvUFHbMiPaI-16" value="" style="edgeStyle=none;orthogonalLoop=1;jettySize=auto;html=1;rounded=0;" edge="1" parent="1">
          <mxGeometry width="100" relative="1" as="geometry">
            <mxPoint x="1.5" y="481" as="sourcePoint" />
            <mxPoint x="101.5" y="481" as="targetPoint" />
            <Array as="points" />
          </mxGeometry>
        </mxCell>
        <mxCell id="P_Tx9aTctBvUFHbMiPaI-18" value="" style="endArrow=open;startArrow=none;endFill=0;startFill=0;endSize=8;html=1;verticalAlign=bottom;labelBackgroundColor=none;strokeWidth=1;rounded=0;" edge="1" parent="1">
          <mxGeometry width="160" relative="1" as="geometry">
            <mxPoint x="523" y="180" as="sourcePoint" />
            <mxPoint x="732.5" y="180" as="targetPoint" />
          </mxGeometry>
        </mxCell>
        <mxCell id="P_Tx9aTctBvUFHbMiPaI-22" value="푸시 알림 클릭 시" style="html=1;verticalAlign=bottom;startArrow=oval;endArrow=block;startSize=8;edgeStyle=elbowEdgeStyle;elbow=vertical;curved=0;rounded=0;" edge="1" parent="1">
          <mxGeometry x="-0.0036" relative="1" as="geometry">
            <mxPoint x="-20" y="227" as="sourcePoint" />
            <mxPoint x="100" y="227.43" as="targetPoint" />
            <mxPoint as="offset" />
          </mxGeometry>
        </mxCell>
        <mxCell id="P_Tx9aTctBvUFHbMiPaI-24" value="" style="endArrow=open;startArrow=none;endFill=0;startFill=0;endSize=8;html=1;verticalAlign=bottom;labelBackgroundColor=none;strokeWidth=1;rounded=0;" edge="1" parent="1">
          <mxGeometry width="160" relative="1" as="geometry">
            <mxPoint x="112.5" y="272" as="sourcePoint" />
            <mxPoint x="326.5" y="272" as="targetPoint" />
          </mxGeometry>
        </mxCell>
        <mxCell id="P_Tx9aTctBvUFHbMiPaI-26" value="&lt;span style=&quot;caret-color: rgb(0, 0, 0); color: rgb(0, 0, 0); font-family: Helvetica; font-size: 9px; font-style: normal; font-variant-caps: normal; font-weight: 400; letter-spacing: normal; text-align: center; text-indent: 0px; text-transform: none; white-space: nowrap; word-spacing: 0px; -webkit-text-stroke-width: 0px; background-color: rgb(255, 255, 255); text-decoration: none; float: none; display: inline !important;&quot;&gt;socket 연결&lt;/span&gt;" style="text;whiteSpace=wrap;html=1;fontSize=9;" vertex="1" parent="1">
          <mxGeometry x="187" y="259" width="83" height="20" as="geometry" />
        </mxCell>
        <mxCell id="P_Tx9aTctBvUFHbMiPaI-27" value="" style="html=1;verticalAlign=bottom;endArrow=open;dashed=1;endSize=8;edgeStyle=elbowEdgeStyle;elbow=vertical;curved=0;rounded=0;" edge="1" parent="1">
          <mxGeometry relative="1" as="geometry">
            <mxPoint x="111" y="283" as="targetPoint" />
            <Array as="points">
              <mxPoint x="320" y="283" />
            </Array>
            <mxPoint x="322" y="283" as="sourcePoint" />
          </mxGeometry>
        </mxCell>
        <mxCell id="P_Tx9aTctBvUFHbMiPaI-28" value="&lt;div style=&quot;text-align: center;&quot;&gt;&lt;span style=&quot;background-color: rgb(255, 255, 255);&quot;&gt;OK&lt;/span&gt;&lt;/div&gt;" style="text;whiteSpace=wrap;html=1;fontSize=9;" vertex="1" parent="1">
          <mxGeometry x="199" y="272" width="22" height="20" as="geometry" />
        </mxCell>
        <mxCell id="P_Tx9aTctBvUFHbMiPaI-29" value="" style="html=1;verticalAlign=bottom;endArrow=open;dashed=1;endSize=8;edgeStyle=elbowEdgeStyle;elbow=vertical;curved=0;rounded=0;" edge="1" parent="1">
          <mxGeometry relative="1" as="geometry">
            <mxPoint x="91.5" y="571" as="targetPoint" />
            <Array as="points">
              <mxPoint x="89.5" y="571" />
            </Array>
            <mxPoint x="1" y="571" as="sourcePoint" />
          </mxGeometry>
        </mxCell>
        <mxCell id="P_Tx9aTctBvUFHbMiPaI-30" value="" style="edgeStyle=none;orthogonalLoop=1;jettySize=auto;html=1;rounded=0;" edge="1" parent="1">
          <mxGeometry width="100" relative="1" as="geometry">
            <mxPoint x="110" y="306" as="sourcePoint" />
            <mxPoint x="320" y="306" as="targetPoint" />
            <Array as="points" />
          </mxGeometry>
        </mxCell>
        <mxCell id="P_Tx9aTctBvUFHbMiPaI-31" value="&lt;span style=&quot;background-color: rgb(255, 255, 255);&quot;&gt;나 N번 채팅방에 들어옴.&lt;/span&gt;" style="text;whiteSpace=wrap;html=1;fontSize=9;" vertex="1" parent="1">
          <mxGeometry x="168" y="293" width="90" height="22" as="geometry" />
        </mxCell>
        <mxCell id="P_Tx9aTctBvUFHbMiPaI-33" value="" style="html=1;verticalAlign=bottom;endArrow=open;dashed=1;endSize=8;edgeStyle=elbowEdgeStyle;elbow=vertical;curved=0;rounded=0;" edge="1" parent="1">
          <mxGeometry relative="1" as="geometry">
            <mxPoint x="107.5" y="318" as="targetPoint" />
            <Array as="points">
              <mxPoint x="316.5" y="318" />
            </Array>
            <mxPoint x="318.5" y="318" as="sourcePoint" />
          </mxGeometry>
        </mxCell>
        <mxCell id="P_Tx9aTctBvUFHbMiPaI-34" value="&lt;span style=&quot;background-color: rgb(255, 255, 255);&quot;&gt;확인&lt;/span&gt;" style="text;whiteSpace=wrap;html=1;fontSize=9;" vertex="1" parent="1">
          <mxGeometry x="199" y="307" width="90" height="22" as="geometry" />
        </mxCell>
        <mxCell id="P_Tx9aTctBvUFHbMiPaI-35" value="&lt;div style=&quot;text-align: center;&quot;&gt;&lt;span style=&quot;font-size: 11px; background-color: rgb(255, 255, 255);&quot;&gt;Return&lt;/span&gt;&lt;/div&gt;" style="text;whiteSpace=wrap;html=1;" vertex="1" parent="1">
          <mxGeometry y="540" width="83" height="30" as="geometry" />
        </mxCell>
        <mxCell id="P_Tx9aTctBvUFHbMiPaI-36" value="&lt;span style=&quot;font-size: 11px; background-color: rgb(255, 255, 255);&quot;&gt;synchronous&lt;/span&gt;" style="text;whiteSpace=wrap;html=1;" vertex="1" parent="1">
          <mxGeometry y="450" width="83" height="30" as="geometry" />
        </mxCell>
        <mxCell id="P_Tx9aTctBvUFHbMiPaI-37" value="&lt;span style=&quot;font-size: 11px; background-color: rgb(255, 255, 255);&quot;&gt;Asynchronous&lt;/span&gt;" style="text;whiteSpace=wrap;html=1;" vertex="1" parent="1">
          <mxGeometry y="500" width="83" height="30" as="geometry" />
        </mxCell>
        <mxCell id="P_Tx9aTctBvUFHbMiPaI-38" value="" style="endArrow=open;startArrow=none;endFill=0;startFill=0;endSize=8;html=1;verticalAlign=bottom;labelBackgroundColor=none;strokeWidth=1;rounded=0;" edge="1" parent="1">
          <mxGeometry width="160" relative="1" as="geometry">
            <mxPoint y="520" as="sourcePoint" />
            <mxPoint x="100" y="520" as="targetPoint" />
          </mxGeometry>
        </mxCell>
        <mxCell id="P_Tx9aTctBvUFHbMiPaI-39" style="edgeStyle=orthogonalEdgeStyle;rounded=0;orthogonalLoop=1;jettySize=auto;html=1;exitX=0.5;exitY=1;exitDx=0;exitDy=0;" edge="1" parent="1" source="P_Tx9aTctBvUFHbMiPaI-21" target="P_Tx9aTctBvUFHbMiPaI-21">
          <mxGeometry relative="1" as="geometry" />
        </mxCell>
        <mxCell id="P_Tx9aTctBvUFHbMiPaI-41" value="&lt;span style=&quot;caret-color: rgb(0, 0, 0); color: rgb(0, 0, 0); font-family: Helvetica; font-size: 9px; font-style: normal; font-variant-caps: normal; font-weight: 400; letter-spacing: normal; orphans: auto; text-align: center; text-indent: 0px; text-transform: none; white-space: nowrap; widows: auto; word-spacing: 0px; -webkit-text-stroke-width: 0px; background-color: rgb(251, 251, 251); text-decoration: none; display: inline !important; float: none;&quot;&gt;다른 유저가 채팅 보냄( mid 11 ~ 15)&lt;/span&gt;" style="text;whiteSpace=wrap;html=1;" vertex="1" parent="1">
          <mxGeometry x="559" y="165" width="170" height="30" as="geometry" />
        </mxCell>
        <mxCell id="P_Tx9aTctBvUFHbMiPaI-21" value="&lt;span style=&quot;caret-color: rgb(0, 0, 0); color: rgb(0, 0, 0); font-family: Helvetica; font-style: normal; font-variant-caps: normal; font-weight: 400; letter-spacing: normal; text-align: center; text-indent: 0px; text-transform: none; white-space: nowrap; word-spacing: 0px; -webkit-text-stroke-width: 0px; background-color: rgb(255, 255, 255); text-decoration: none; float: none; display: inline !important;&quot;&gt;&lt;font style=&quot;font-size: 10px;&quot;&gt;push notification&lt;/font&gt;&lt;/span&gt;" style="text;whiteSpace=wrap;html=1;" vertex="1" parent="1">
          <mxGeometry x="589" y="185" width="83" height="27" as="geometry" />
        </mxCell>
        <mxCell id="P_Tx9aTctBvUFHbMiPaI-43" value="" style="endArrow=open;startArrow=none;endFill=0;startFill=0;endSize=8;html=1;verticalAlign=bottom;labelBackgroundColor=none;strokeWidth=1;rounded=0;" edge="1" parent="1" target="P_Tx9aTctBvUFHbMiPaI-90">
          <mxGeometry width="160" relative="1" as="geometry">
            <mxPoint x="112" y="233" as="sourcePoint" />
            <mxPoint x="212" y="233" as="targetPoint" />
          </mxGeometry>
        </mxCell>
        <mxCell id="P_Tx9aTctBvUFHbMiPaI-47" value="&lt;span style=&quot;caret-color: rgba(0, 0, 0, 0); color: rgba(0, 0, 0, 0); font-family: monospace; font-size: 0px; text-align: start; background-color: rgb(251, 251, 251);&quot;&gt;%3CmxGraphModel%3E%3Croot%3E%3CmxCell%20id%3D%220%22%2F%3E%3CmxCell%20id%3D%221%22%20parent%3D%220%22%2F%3E%3CmxCell%20id%3D%222%22%20value%3D%22mid%2011%EB%B2%88%EB%B6%80%ED%84%B0%20%EC%B1%84%ED%8C%85%EB%B0%A9%20%EB%82%B4%EC%97%AD%20%ED%95%84%EC%9A%94%ED%95%B4%EC%9A%94%22%20style%3D%22text%3Bhtml%3D1%3Balign%3Dcenter%3BverticalAlign%3Dmiddle%3Bresizable%3D0%3Bpoints%3D%5B%5D%3Bautosize%3D1%3BstrokeColor%3Dnone%3BfillColor%3Dnone%3BfontSize%3D9%3B%22%20vertex%3D%221%22%20parent%3D%221%22%3E%3CmxGeometry%20x%3D%22347%22%20y%3D%22222%22%20width%3D%22150%22%20height%3D%2220%22%20as%3D%22geometry%22%2F%3E%3C%2FmxCell%3E%3C%2Froot%3E%3C%2FmxGraphModel%3E&lt;/span&gt;&lt;span style=&quot;caret-color: rgba(0, 0, 0, 0); color: rgba(0, 0, 0, 0); font-family: monospace; font-size: 0px; text-align: start; background-color: rgb(251, 251, 251);&quot;&gt;%3CmxGraphModel%3E%3Croot%3E%3CmxCell%20id%3D%220%22%2F%3E%3CmxCell%20id%3D%221%22%20parent%3D%220%22%2F%3E%3CmxCell%20id%3D%222%22%20value%3D%22mid%2011%EB%B2%88%EB%B6%80%ED%84%B0%20%EC%B1%84%ED%8C%85%EB%B0%A9%20%EB%82%B4%EC%97%AD%20%ED%95%84%EC%9A%94%ED%95%B4%EC%9A%94%22%20style%3D%22text%3Bhtml%3D1%3Balign%3Dcenter%3BverticalAlign%3Dmiddle%3Bresizable%3D0%3Bpoints%3D%5B%5D%3Bautosize%3D1%3BstrokeColor%3Dnone%3BfillColor%3Dnone%3BfontSize%3D9%3B%22%20vertex%3D%221%22%20parent%3D%221%22%3E%3CmxGeometry%20x%3D%22347%22%20y%3D%22222%22%20width%3D%22150%22%20height%3D%2220%22%20as%3D%22geometry%22%2F%3E%3C%2FmxCell%3E%3C%2Froot%3E%3C%2FmxGraphModel%3E&lt;/span&gt;" style="edgeLabel;html=1;align=center;verticalAlign=middle;resizable=0;points=[];" vertex="1" connectable="0" parent="P_Tx9aTctBvUFHbMiPaI-43">
          <mxGeometry x="0.5426" y="1" relative="1" as="geometry">
            <mxPoint as="offset" />
          </mxGeometry>
        </mxCell>
        <mxCell id="P_Tx9aTctBvUFHbMiPaI-48" value="N번 채팅방의 마지막에 저장해놨던 mid가 뭐였죠?" style="edgeLabel;html=1;align=center;verticalAlign=middle;resizable=0;points=[];fontSize=7;" vertex="1" connectable="0" parent="P_Tx9aTctBvUFHbMiPaI-43">
          <mxGeometry x="0.551" relative="1" as="geometry">
            <mxPoint x="91" y="-1" as="offset" />
          </mxGeometry>
        </mxCell>
        <mxCell id="P_Tx9aTctBvUFHbMiPaI-44" value="" style="html=1;verticalAlign=bottom;endArrow=open;dashed=1;endSize=8;edgeStyle=elbowEdgeStyle;elbow=vertical;curved=0;rounded=0;" edge="1" parent="1" source="P_Tx9aTctBvUFHbMiPaI-90">
          <mxGeometry relative="1" as="geometry">
            <mxPoint x="112.5" y="247" as="targetPoint" />
            <Array as="points">
              <mxPoint x="201" y="247" />
            </Array>
            <mxPoint x="203" y="247" as="sourcePoint" />
          </mxGeometry>
        </mxCell>
        <mxCell id="P_Tx9aTctBvUFHbMiPaI-51" value="{&quot;mid&quot; : n }" style="edgeLabel;html=1;align=center;verticalAlign=middle;resizable=0;points=[];fontSize=8;" vertex="1" connectable="0" parent="P_Tx9aTctBvUFHbMiPaI-44">
          <mxGeometry x="-0.5253" relative="1" as="geometry">
            <mxPoint x="109" as="offset" />
          </mxGeometry>
        </mxCell>
        <mxCell id="P_Tx9aTctBvUFHbMiPaI-93" value="{&quot;roomid&quot; : n }" style="edgeLabel;html=1;align=center;verticalAlign=middle;resizable=0;points=[];fontSize=8;" vertex="1" connectable="0" parent="P_Tx9aTctBvUFHbMiPaI-44">
          <mxGeometry x="-0.5253" relative="1" as="geometry">
            <mxPoint x="105" y="-30" as="offset" />
          </mxGeometry>
        </mxCell>
        <mxCell id="P_Tx9aTctBvUFHbMiPaI-53" value="" style="endArrow=open;startArrow=none;endFill=0;startFill=0;endSize=8;html=1;verticalAlign=bottom;labelBackgroundColor=none;strokeWidth=1;rounded=0;" edge="1" parent="1">
          <mxGeometry width="160" relative="1" as="geometry">
            <mxPoint x="113" y="164" as="sourcePoint" />
            <mxPoint x="327" y="164" as="targetPoint" />
          </mxGeometry>
        </mxCell>
        <mxCell id="P_Tx9aTctBvUFHbMiPaI-55" value="&lt;span style=&quot;font-size: 9px;&quot;&gt;socket DisConnect&lt;/span&gt;" style="edgeLabel;html=1;align=center;verticalAlign=middle;resizable=0;points=[];" vertex="1" connectable="0" parent="P_Tx9aTctBvUFHbMiPaI-53">
          <mxGeometry x="-0.0441" y="1" relative="1" as="geometry">
            <mxPoint as="offset" />
          </mxGeometry>
        </mxCell>
        <mxCell id="P_Tx9aTctBvUFHbMiPaI-56" value="" style="html=1;verticalAlign=bottom;endArrow=open;dashed=1;endSize=8;edgeStyle=elbowEdgeStyle;elbow=vertical;curved=0;rounded=0;" edge="1" parent="1">
          <mxGeometry relative="1" as="geometry">
            <mxPoint x="113" y="175" as="targetPoint" />
            <Array as="points">
              <mxPoint x="322" y="175" />
            </Array>
            <mxPoint x="324" y="175" as="sourcePoint" />
          </mxGeometry>
        </mxCell>
        <mxCell id="P_Tx9aTctBvUFHbMiPaI-57" value="&lt;font style=&quot;font-size: 9px;&quot;&gt;OK&lt;/font&gt;" style="edgeLabel;html=1;align=center;verticalAlign=middle;resizable=0;points=[];" vertex="1" connectable="0" parent="P_Tx9aTctBvUFHbMiPaI-56">
          <mxGeometry x="0.0196" y="1" relative="1" as="geometry">
            <mxPoint x="-3" y="-2" as="offset" />
          </mxGeometry>
        </mxCell>
        <mxCell id="P_Tx9aTctBvUFHbMiPaI-58" value="Foreground 상태" style="html=1;verticalAlign=bottom;startArrow=oval;endArrow=block;startSize=8;edgeStyle=elbowEdgeStyle;elbow=vertical;curved=0;rounded=0;" edge="1" parent="1">
          <mxGeometry x="-0.0036" relative="1" as="geometry">
            <mxPoint x="-20.5" y="30" as="sourcePoint" />
            <mxPoint x="99.5" y="30.430000000000007" as="targetPoint" />
            <mxPoint as="offset" />
          </mxGeometry>
        </mxCell>
        <mxCell id="P_Tx9aTctBvUFHbMiPaI-59" value="" style="endArrow=open;startArrow=none;endFill=0;startFill=0;endSize=8;html=1;verticalAlign=bottom;labelBackgroundColor=none;strokeWidth=1;rounded=0;" edge="1" parent="1">
          <mxGeometry width="160" relative="1" as="geometry">
            <mxPoint x="111" y="34" as="sourcePoint" />
            <mxPoint x="521.5" y="34" as="targetPoint" />
          </mxGeometry>
        </mxCell>
        <mxCell id="P_Tx9aTctBvUFHbMiPaI-60" value="&lt;span style=&quot;font-size: 9px;&quot;&gt;GET /api/v3/chats/{roomId}&lt;/span&gt;" style="edgeLabel;html=1;align=center;verticalAlign=middle;resizable=0;points=[];" vertex="1" connectable="0" parent="P_Tx9aTctBvUFHbMiPaI-59">
          <mxGeometry x="-0.0441" y="1" relative="1" as="geometry">
            <mxPoint x="114" as="offset" />
          </mxGeometry>
        </mxCell>
        <mxCell id="P_Tx9aTctBvUFHbMiPaI-61" value="" style="html=1;verticalAlign=bottom;endArrow=open;dashed=1;endSize=8;edgeStyle=elbowEdgeStyle;elbow=vertical;curved=0;rounded=0;" edge="1" parent="1">
          <mxGeometry relative="1" as="geometry">
            <mxPoint x="110" y="43" as="targetPoint" />
            <Array as="points">
              <mxPoint x="198.5" y="43" />
            </Array>
            <mxPoint x="519.5" y="43" as="sourcePoint" />
          </mxGeometry>
        </mxCell>
        <mxCell id="P_Tx9aTctBvUFHbMiPaI-62" value="ok" style="edgeLabel;html=1;align=center;verticalAlign=middle;resizable=0;points=[];fontSize=9;" vertex="1" connectable="0" parent="P_Tx9aTctBvUFHbMiPaI-61">
          <mxGeometry x="-0.5253" relative="1" as="geometry">
            <mxPoint y="-1" as="offset" />
          </mxGeometry>
        </mxCell>
        <mxCell id="P_Tx9aTctBvUFHbMiPaI-63" value="읽었다&#39;의 기준은 무엇으로 판단할까?" style="text;html=1;align=center;verticalAlign=middle;resizable=0;points=[];autosize=1;strokeColor=none;fillColor=none;fontSize=9;" vertex="1" parent="1">
          <mxGeometry x="350" y="450" width="150" height="20" as="geometry" />
        </mxCell>
        <mxCell id="P_Tx9aTctBvUFHbMiPaI-66" value="&lt;div style=&quot;text-align: center;&quot;&gt;&lt;span style=&quot;font-size: 11px; text-wrap: nowrap; background-color: rgb(255, 255, 255);&quot;&gt;채팅방 진입&lt;/span&gt;&lt;/div&gt;" style="text;whiteSpace=wrap;html=1;" vertex="1" parent="1">
          <mxGeometry x="7" y="27" width="110" height="40" as="geometry" />
        </mxCell>
        <mxCell id="P_Tx9aTctBvUFHbMiPaI-67" value="" style="endArrow=open;startArrow=none;endFill=0;startFill=0;endSize=8;html=1;verticalAlign=bottom;labelBackgroundColor=none;strokeWidth=1;rounded=0;" edge="1" parent="1" target="P_Tx9aTctBvUFHbMiPaI-90">
          <mxGeometry width="160" relative="1" as="geometry">
            <mxPoint x="110" y="142.43" as="sourcePoint" />
            <mxPoint x="520.5" y="142.43" as="targetPoint" />
          </mxGeometry>
        </mxCell>
        <mxCell id="P_Tx9aTctBvUFHbMiPaI-68" value="&lt;span style=&quot;font-size: 9px;&quot;&gt;채팅방의 message index store&lt;/span&gt;" style="edgeLabel;html=1;align=center;verticalAlign=middle;resizable=0;points=[];" vertex="1" connectable="0" parent="P_Tx9aTctBvUFHbMiPaI-67">
          <mxGeometry x="-0.0441" y="1" relative="1" as="geometry">
            <mxPoint x="325" y="-2" as="offset" />
          </mxGeometry>
        </mxCell>
        <mxCell id="P_Tx9aTctBvUFHbMiPaI-70" value="" style="html=1;verticalAlign=bottom;endArrow=open;dashed=1;endSize=8;edgeStyle=elbowEdgeStyle;elbow=vertical;curved=0;rounded=0;" edge="1" parent="1" source="P_Tx9aTctBvUFHbMiPaI-90">
          <mxGeometry relative="1" as="geometry">
            <mxPoint x="112" y="151" as="targetPoint" />
            <Array as="points">
              <mxPoint x="200.5" y="151" />
            </Array>
            <mxPoint x="521.5" y="151" as="sourcePoint" />
          </mxGeometry>
        </mxCell>
        <mxCell id="P_Tx9aTctBvUFHbMiPaI-71" value="ok" style="edgeLabel;html=1;align=center;verticalAlign=middle;resizable=0;points=[];fontSize=9;" vertex="1" connectable="0" parent="P_Tx9aTctBvUFHbMiPaI-70">
          <mxGeometry x="-0.5253" relative="1" as="geometry">
            <mxPoint x="1157" y="499" as="offset" />
          </mxGeometry>
        </mxCell>
        <mxCell id="P_Tx9aTctBvUFHbMiPaI-75" value="Move last message scroll position &amp;nbsp;&lt;div style=&quot;font-size: 8px;&quot;&gt;using last mid&lt;/div&gt;" style="text;html=1;align=center;verticalAlign=middle;resizable=0;points=[];autosize=1;strokeColor=none;fillColor=none;fontSize=8;" vertex="1" parent="1">
          <mxGeometry x="-39" y="259" width="150" height="30" as="geometry" />
        </mxCell>
        <mxCell id="P_Tx9aTctBvUFHbMiPaI-76" value="" style="html=1;verticalAlign=bottom;startArrow=oval;endArrow=block;startSize=8;edgeStyle=elbowEdgeStyle;elbow=vertical;curved=0;rounded=0;" edge="1" parent="1">
          <mxGeometry x="-0.0036" relative="1" as="geometry">
            <mxPoint x="-22" y="256" as="sourcePoint" />
            <mxPoint x="98" y="256.43" as="targetPoint" />
            <mxPoint as="offset" />
          </mxGeometry>
        </mxCell>
        <mxCell id="P_Tx9aTctBvUFHbMiPaI-77" value="" style="endArrow=open;startArrow=none;endFill=0;startFill=0;endSize=8;html=1;verticalAlign=bottom;labelBackgroundColor=none;strokeWidth=1;rounded=0;" edge="1" parent="1">
          <mxGeometry width="160" relative="1" as="geometry">
            <mxPoint x="113" y="56" as="sourcePoint" />
            <mxPoint x="327" y="56" as="targetPoint" />
          </mxGeometry>
        </mxCell>
        <mxCell id="P_Tx9aTctBvUFHbMiPaI-78" value="&lt;span style=&quot;caret-color: rgb(0, 0, 0); color: rgb(0, 0, 0); font-family: Helvetica; font-size: 9px; font-style: normal; font-variant-caps: normal; font-weight: 400; letter-spacing: normal; text-align: center; text-indent: 0px; text-transform: none; white-space: nowrap; word-spacing: 0px; -webkit-text-stroke-width: 0px; background-color: rgb(255, 255, 255); text-decoration: none; float: none; display: inline !important;&quot;&gt;socket 연결&lt;/span&gt;" style="text;whiteSpace=wrap;html=1;fontSize=9;" vertex="1" parent="1">
          <mxGeometry x="187.5" y="43" width="83" height="20" as="geometry" />
        </mxCell>
        <mxCell id="P_Tx9aTctBvUFHbMiPaI-79" value="&lt;div style=&quot;text-align: center; font-size: 8px;&quot;&gt;&lt;span style=&quot;background-color: rgb(255, 255, 255); font-size: 8px;&quot;&gt;OK&lt;/span&gt;&lt;/div&gt;" style="text;whiteSpace=wrap;html=1;fontSize=8;" vertex="1" parent="1">
          <mxGeometry x="199.5" y="56" width="22" height="20" as="geometry" />
        </mxCell>
        <mxCell id="P_Tx9aTctBvUFHbMiPaI-80" value="" style="html=1;verticalAlign=bottom;endArrow=open;dashed=1;endSize=8;edgeStyle=elbowEdgeStyle;elbow=vertical;curved=0;rounded=0;" edge="1" parent="1" source="P_Tx9aTctBvUFHbMiPaI-1">
          <mxGeometry relative="1" as="geometry">
            <mxPoint x="111.5" y="67" as="targetPoint" />
            <Array as="points">
              <mxPoint x="320.5" y="67" />
            </Array>
            <mxPoint x="322.5" y="67" as="sourcePoint" />
          </mxGeometry>
        </mxCell>
        <mxCell id="P_Tx9aTctBvUFHbMiPaI-82" value="" style="edgeStyle=none;orthogonalLoop=1;jettySize=auto;html=1;rounded=0;" edge="1" parent="1" target="P_Tx9aTctBvUFHbMiPaI-1">
          <mxGeometry width="100" relative="1" as="geometry">
            <mxPoint x="110.5" y="90" as="sourcePoint" />
            <mxPoint x="320.5" y="90" as="targetPoint" />
            <Array as="points" />
          </mxGeometry>
        </mxCell>
        <mxCell id="P_Tx9aTctBvUFHbMiPaI-87" value="나 N번 채팅방 들어옴" style="edgeLabel;html=1;align=center;verticalAlign=middle;resizable=0;points=[];fontSize=8;" vertex="1" connectable="0" parent="P_Tx9aTctBvUFHbMiPaI-82">
          <mxGeometry x="0.2163" y="1" relative="1" as="geometry">
            <mxPoint x="-54" as="offset" />
          </mxGeometry>
        </mxCell>
        <mxCell id="P_Tx9aTctBvUFHbMiPaI-83" value="" style="html=1;verticalAlign=bottom;endArrow=open;dashed=1;endSize=8;edgeStyle=elbowEdgeStyle;elbow=vertical;curved=0;rounded=0;" edge="1" parent="1">
          <mxGeometry relative="1" as="geometry">
            <mxPoint x="108" y="97" as="targetPoint" />
            <Array as="points">
              <mxPoint x="317" y="97" />
            </Array>
            <mxPoint x="326.5" y="97" as="sourcePoint" />
          </mxGeometry>
        </mxCell>
        <mxCell id="P_Tx9aTctBvUFHbMiPaI-86" value="확인" style="edgeLabel;html=1;align=center;verticalAlign=middle;resizable=0;points=[];fontSize=8;" vertex="1" connectable="0" parent="P_Tx9aTctBvUFHbMiPaI-83">
          <mxGeometry x="0.1409" y="-1" relative="1" as="geometry">
            <mxPoint x="51" as="offset" />
          </mxGeometry>
        </mxCell>
        <mxCell id="P_Tx9aTctBvUFHbMiPaI-88" value="Store { &quot;roomId:&quot; x, &quot;Mid&quot;: x}" style="text;whiteSpace=wrap;html=1;fontSize=9;" vertex="1" parent="1">
          <mxGeometry x="760" y="109" width="120" height="22" as="geometry" />
        </mxCell>
        <mxCell id="P_Tx9aTctBvUFHbMiPaI-89" value="{&quot;roomId&quot;: index }" style="text;html=1;align=center;verticalAlign=middle;resizable=0;points=[];autosize=1;strokeColor=none;fillColor=none;fontSize=8;" vertex="1" parent="1">
          <mxGeometry x="580" y="209" width="90" height="20" as="geometry" />
        </mxCell>
        <mxCell id="P_Tx9aTctBvUFHbMiPaI-90" value="localDB" style="shape=umlLifeline;perimeter=lifelinePerimeter;whiteSpace=wrap;html=1;container=0;dropTarget=0;collapsible=0;recursiveResize=0;outlineConnect=0;portConstraint=eastwest;newEdgeStyle={&quot;edgeStyle&quot;:&quot;elbowEdgeStyle&quot;,&quot;elbow&quot;:&quot;vertical&quot;,&quot;curved&quot;:0,&quot;rounded&quot;:0};" vertex="1" parent="1">
          <mxGeometry x="850" y="-50" width="100" height="471" as="geometry" />
        </mxCell>
        <mxCell id="P_Tx9aTctBvUFHbMiPaI-91" value="" style="html=1;points=[];perimeter=orthogonalPerimeter;outlineConnect=0;targetShapes=umlLifeline;portConstraint=eastwest;newEdgeStyle={&quot;edgeStyle&quot;:&quot;elbowEdgeStyle&quot;,&quot;elbow&quot;:&quot;vertical&quot;,&quot;curved&quot;:0,&quot;rounded&quot;:0};" vertex="1" parent="P_Tx9aTctBvUFHbMiPaI-90">
          <mxGeometry x="45" y="192.5" width="10" height="9" as="geometry" />
        </mxCell>
        <mxCell id="P_Tx9aTctBvUFHbMiPaI-92" value="" style="html=1;points=[];perimeter=orthogonalPerimeter;outlineConnect=0;targetShapes=umlLifeline;portConstraint=eastwest;newEdgeStyle={&quot;edgeStyle&quot;:&quot;elbowEdgeStyle&quot;,&quot;elbow&quot;:&quot;vertical&quot;,&quot;curved&quot;:0,&quot;rounded&quot;:0};" vertex="1" parent="P_Tx9aTctBvUFHbMiPaI-90">
          <mxGeometry x="45" y="285" width="10" height="9" as="geometry" />
        </mxCell>
      </root>
    </mxGraphModel>
  </diagram>
</mxfile>
